<svg width="73" height="52" viewBox="0 0 73 52" fill="none" xmlns="http://www.w3.org/2000/svg">
<path d="M18.6523 23.8164H20.5742C21.0664 23.8164 21.4688 23.7305 21.7812 23.5586C22.1016 23.3789 22.3398 23.1289 22.4961 22.8086C22.6523 22.4805 22.7305 22.0938 22.7305 21.6484C22.7305 21.3047 22.6562 20.9883 22.5078 20.6992C22.3672 20.4102 22.1484 20.1797 21.8516 20.0078C21.5547 19.8281 21.1758 19.7383 20.7148 19.7383C20.4023 19.7383 20.0977 19.8047 19.8008 19.9375C19.5039 20.0625 19.2578 20.2422 19.0625 20.4766C18.875 20.7109 18.7812 20.9961 18.7812 21.332H14.8203C14.8203 20.3633 15.0859 19.5352 15.6172 18.8477C16.1562 18.1523 16.8633 17.6211 17.7383 17.2539C18.6211 16.8789 19.5703 16.6914 20.5859 16.6914C21.7969 16.6914 22.8594 16.8789 23.7734 17.2539C24.6875 17.6211 25.3984 18.168 25.9062 18.8945C26.4219 19.6133 26.6797 20.5039 26.6797 21.5664C26.6797 22.1523 26.543 22.7031 26.2695 23.2188C25.9961 23.7344 25.6133 24.1875 25.1211 24.5781C24.6289 24.9688 24.0508 25.2773 23.3867 25.5039C22.7305 25.7227 22.0117 25.832 21.2305 25.832H18.6523V23.8164ZM18.6523 26.7578V24.7891H21.2305C22.082 24.7891 22.8594 24.8867 23.5625 25.082C24.2656 25.2695 24.8711 25.5508 25.3789 25.9258C25.8867 26.3008 26.2773 26.7656 26.5508 27.3203C26.8242 27.8672 26.9609 28.4961 26.9609 29.207C26.9609 30.0039 26.8008 30.7148 26.4805 31.3398C26.1602 31.9648 25.7109 32.4922 25.1328 32.9219C24.5547 33.3516 23.8789 33.6797 23.1055 33.9062C22.332 34.125 21.4922 34.2344 20.5859 34.2344C19.875 34.2344 19.1641 34.1406 18.4531 33.9531C17.7422 33.7578 17.0938 33.4609 16.5078 33.0625C15.9219 32.6562 15.4492 32.1406 15.0898 31.5156C14.7383 30.8828 14.5625 30.1289 14.5625 29.2539H18.5234C18.5234 29.6133 18.6211 29.9414 18.8164 30.2383C19.0195 30.5273 19.2891 30.7578 19.625 30.9297C19.9609 31.1016 20.3242 31.1875 20.7148 31.1875C21.1992 31.1875 21.6094 31.0977 21.9453 30.918C22.2891 30.7305 22.5508 30.4805 22.7305 30.168C22.9102 29.8555 23 29.5078 23 29.125C23 28.5469 22.9023 28.0859 22.707 27.7422C22.5195 27.3984 22.2422 27.1484 21.875 26.9922C21.5156 26.8359 21.082 26.7578 20.5742 26.7578H18.6523ZM40.8242 23.9102V27.0273C40.8242 28.2539 40.6797 29.3203 40.3906 30.2266C40.1094 31.1328 39.7031 31.8828 39.1719 32.4766C38.6484 33.0703 38.0234 33.5117 37.2969 33.8008C36.5703 34.0898 35.7695 34.2344 34.8945 34.2344C34.1914 34.2344 33.5352 34.1445 32.9258 33.9648C32.3164 33.7773 31.7656 33.4961 31.2734 33.1211C30.7891 32.7383 30.3711 32.2617 30.0195 31.6914C29.668 31.1211 29.3984 30.4492 29.2109 29.6758C29.0234 28.8945 28.9297 28.0117 28.9297 27.0273V23.9102C28.9297 22.6758 29.0703 21.6094 29.3516 20.7109C29.6406 19.8047 30.0508 19.0547 30.582 18.4609C31.1133 17.8672 31.7422 17.4258 32.4688 17.1367C33.1953 16.8477 33.9961 16.7031 34.8711 16.7031C35.5742 16.7031 36.2266 16.7969 36.8281 16.9844C37.4375 17.1641 37.9883 17.4453 38.4805 17.8281C38.9727 18.2031 39.3906 18.6758 39.7344 19.2461C40.0859 19.8164 40.3555 20.4922 40.543 21.2734C40.7305 22.0469 40.8242 22.9258 40.8242 23.9102ZM36.875 27.5078V23.4062C36.875 22.8594 36.8438 22.3828 36.7812 21.9766C36.7266 21.5703 36.6406 21.2266 36.5234 20.9453C36.4141 20.6641 36.2773 20.4375 36.1133 20.2656C35.9492 20.0859 35.7617 19.957 35.5508 19.8789C35.3477 19.793 35.1211 19.75 34.8711 19.75C34.5586 19.75 34.2773 19.8164 34.0273 19.9492C33.7852 20.0742 33.5781 20.2773 33.4062 20.5586C33.2344 20.8398 33.1016 21.2148 33.0078 21.6836C32.9219 22.1523 32.8789 22.7266 32.8789 23.4062V27.5078C32.8789 28.0625 32.9062 28.5469 32.9609 28.9609C33.0234 29.3672 33.1094 29.7148 33.2188 30.0039C33.3359 30.2852 33.4766 30.5156 33.6406 30.6953C33.8047 30.8672 33.9922 30.9922 34.2031 31.0703C34.4141 31.1484 34.6445 31.1875 34.8945 31.1875C35.1992 31.1875 35.4727 31.125 35.7148 31C35.957 30.875 36.1641 30.6719 36.3359 30.3906C36.5156 30.1016 36.6484 29.7227 36.7344 29.2539C36.8281 28.7773 36.875 28.1953 36.875 27.5078ZM42.9102 21.1211V20.2188C42.9102 19.5703 43.0508 18.9805 43.332 18.4492C43.6133 17.918 44.0352 17.4922 44.5977 17.1719C45.1602 16.8516 45.8594 16.6914 46.6953 16.6914C47.5547 16.6914 48.2656 16.8516 48.8281 17.1719C49.3906 17.4922 49.8086 17.918 50.082 18.4492C50.3633 18.9805 50.5039 19.5703 50.5039 20.2188V21.1211C50.5039 21.7539 50.3633 22.3359 50.082 22.8672C49.8086 23.3984 49.3906 23.8242 48.8281 24.1445C48.2734 24.4648 47.5703 24.625 46.7188 24.625C45.875 24.625 45.1719 24.4648 44.6094 24.1445C44.0469 23.8242 43.6211 23.3984 43.332 22.8672C43.0508 22.3359 42.9102 21.7539 42.9102 21.1211ZM45.4414 20.2188V21.1211C45.4414 21.3555 45.4883 21.5781 45.582 21.7891C45.6758 22 45.8164 22.1719 46.0039 22.3047C46.1992 22.4297 46.4375 22.4922 46.7188 22.4922C47.0078 22.4922 47.2422 22.4297 47.4219 22.3047C47.6016 22.1719 47.7344 22 47.8203 21.7891C47.9141 21.5781 47.9609 21.3555 47.9609 21.1211V20.2188C47.9609 19.9688 47.9141 19.7383 47.8203 19.5273C47.7344 19.3164 47.5977 19.1484 47.4102 19.0234C47.2227 18.8906 46.9844 18.8242 46.6953 18.8242C46.4219 18.8242 46.1914 18.8906 46.0039 19.0234C45.8164 19.1484 45.6758 19.3164 45.582 19.5273C45.4883 19.7383 45.4414 19.9688 45.4414 20.2188ZM51.0078 30.7188V29.8164C51.0078 29.1758 51.1484 28.5898 51.4297 28.0586C51.7188 27.5273 52.1445 27.1016 52.707 26.7812C53.2773 26.4609 53.9805 26.3008 54.8164 26.3008C55.6758 26.3008 56.3828 26.4609 56.9375 26.7812C57.5 27.1016 57.918 27.5273 58.1914 28.0586C58.4727 28.5898 58.6133 29.1758 58.6133 29.8164V30.7188C58.6133 31.3594 58.4727 31.9453 58.1914 32.4766C57.918 33.0078 57.5039 33.4336 56.9492 33.7539C56.3945 34.0742 55.6914 34.2344 54.8398 34.2344C53.9961 34.2344 53.2891 34.0742 52.7188 33.7539C52.1484 33.4336 51.7188 33.0078 51.4297 32.4766C51.1484 31.9453 51.0078 31.3594 51.0078 30.7188ZM53.5508 29.8164V30.7188C53.5508 30.9609 53.6094 31.1875 53.7266 31.3984C53.8438 31.6094 54 31.7812 54.1953 31.9141C54.3906 32.0391 54.6055 32.1016 54.8398 32.1016C55.1992 32.1016 55.4648 32.0391 55.6367 31.9141C55.8164 31.7812 55.9336 31.6094 55.9883 31.3984C56.0508 31.1875 56.082 30.9609 56.082 30.7188V29.8164C56.082 29.5742 56.0352 29.3477 55.9414 29.1367C55.8477 28.9258 55.707 28.7578 55.5195 28.6328C55.332 28.5 55.0977 28.4336 54.8164 28.4336C54.5352 28.4336 54.3008 28.5 54.1133 28.6328C53.9258 28.7578 53.7852 28.9258 53.6914 29.1367C53.5977 29.3477 53.5508 29.5742 53.5508 29.8164ZM55.8008 19.3867L47.4688 32.7227L45.6289 31.7969L53.9609 18.4609L55.8008 19.3867Z" fill="white"/>
<path fill-rule="evenodd" clip-rule="evenodd" d="M29.7631 0.0426016C29.8195 0.0661002 29.9119 0.0661002 29.9683 0.0426016C30.0248 0.0191875 29.9786 0 29.8657 0C29.7528 0 29.7067 0.0191875 29.7631 0.0426016ZM29.0294 0.128904C29.0886 0.153332 29.1594 0.15029 29.1867 0.122226C29.2139 0.0941634 29.1655 0.0742142 29.079 0.0778488C28.9833 0.0819061 28.9639 0.101939 29.0294 0.128904ZM31.7538 0.164743C31.4152 0.19661 30.7872 0.248341 30.3582 0.2797C29.9293 0.310975 29.4675 0.349943 29.3321 0.366087C29.1966 0.382317 28.8492 0.419086 28.5601 0.447741C28.271 0.476396 28.0064 0.51773 27.972 0.539623C27.9376 0.561431 27.657 0.601835 27.3484 0.629391C27.0397 0.656862 26.7632 0.69456 26.7339 0.713072C26.7046 0.731583 26.5199 0.76624 26.3234 0.790077C26.127 0.813829 25.8 0.870378 25.5968 0.915769C24.8997 1.0713 23.9139 1.27552 23.8945 1.26833C23.8839 1.26444 23.7222 1.31677 23.5353 1.38464C23.3484 1.4526 23.117 1.50763 23.0211 1.50704C22.7579 1.50543 19.9778 2.34901 18.9883 2.73066C18.6722 2.85263 18.2289 3.01103 18.0032 3.0828C17.7774 3.15448 17.4449 3.28338 17.2643 3.36909C16.5634 3.70188 15.969 3.95943 15.9017 3.95943C15.8225 3.95943 14.6767 4.48908 14.3295 4.68611C14.2054 4.75661 14.1037 4.79262 14.1037 4.76616C14.1037 4.7397 13.9652 4.80563 13.7959 4.91264C13.6266 5.01966 13.1925 5.25616 12.8313 5.43823C11.4261 6.14674 9.39281 7.50484 7.94271 8.70353C6.4853 9.90838 4.43994 12.0884 4.06987 12.8315C3.98974 12.9924 3.92399 13.0875 3.92374 13.0428C3.92349 12.9982 3.8588 13.0611 3.78008 13.1826C3.70127 13.3042 3.50358 13.6085 3.34079 13.8588C2.58085 15.0274 2.36552 15.4305 1.73069 16.8735C1.35676 17.7234 1.0503 18.4651 1.04965 18.5218C1.04899 18.5785 0.994152 18.7855 0.927738 18.9819C0.774141 19.4357 0.429184 21.0573 0.3145 21.8647C0.166978 22.9025 0.143171 25.0375 0.266147 26.1901C0.654942 29.8344 1.611 33.0592 3.26543 36.3065C3.76111 37.2794 4.53583 38.5929 4.70223 38.7424C4.75395 38.7889 4.81716 38.8845 4.84269 38.9548C4.91313 39.1488 6.53883 41.2812 7.1423 41.9712C7.68354 42.59 8.11387 43.004 9.53228 44.2705C9.96959 44.661 10.3274 44.998 10.3274 45.0192C10.3274 45.0404 10.2637 45.0326 10.1857 45.0018C10.0849 44.962 10.1026 45.01 10.2467 45.1679C10.4339 45.3732 11.3484 46.0246 12.4747 46.7549C12.929 47.0496 13.1363 47.0835 12.9332 46.8299C12.8498 46.7259 12.8536 46.7104 12.9544 46.7449C13.0222 46.7681 13.0777 46.8569 13.0779 46.9422C13.0783 47.124 13.2387 47.2276 14.5553 47.8966C16.0891 48.676 16.3847 48.8096 17.2807 49.1285C17.9819 49.378 18.1109 49.4031 18.0745 49.2829C18.0489 49.1984 18.1103 49.234 18.2237 49.3695C18.4089 49.5908 19.2135 49.9423 19.5348 49.9423C19.618 49.9423 19.6861 49.9803 19.6861 50.0268C19.6861 50.0733 19.7138 50.1069 19.7477 50.1014C19.7816 50.0958 19.8277 50.0988 19.8503 50.1078C19.8729 50.1169 19.9467 50.1365 20.0145 50.1513C20.0822 50.1661 20.2397 50.2055 20.3643 50.2387C20.5519 50.2888 20.5822 50.2758 20.5402 50.163C20.5065 50.0726 20.5338 50.0268 20.6214 50.0268C20.6958 50.0268 20.7533 50.0961 20.7533 50.186C20.7533 50.342 20.8304 50.384 21.383 50.5293C21.6036 50.5872 21.6366 50.5767 21.5987 50.4602C21.5715 50.3764 21.6052 50.393 21.6852 50.5031C21.8076 50.6713 22.2492 50.8249 22.5799 50.8142C22.6589 50.8117 22.7236 50.8427 22.7236 50.8831C22.7236 51.0055 22.9717 50.9654 23.0202 50.8352C23.0739 50.6911 23.287 50.7502 23.4624 50.9577C23.6258 51.1511 26.4546 51.6374 28.5932 51.8397C30.8189 52.0502 35.8659 52.0543 36.9144 51.8464C37.0168 51.8262 37.4213 51.7866 37.8135 51.7586C38.2056 51.7307 38.582 51.6914 38.6498 51.6713C38.7175 51.6513 38.9576 51.6161 39.1834 51.5933C39.409 51.5704 39.8708 51.5109 40.2095 51.4609C40.5481 51.411 40.9175 51.357 41.0304 51.3409C41.1433 51.3247 41.2356 51.3046 41.2356 51.2963C41.2356 51.2879 41.328 51.2692 41.4409 51.2548C41.737 51.217 42.6281 51.0472 43.2469 50.9105C43.5404 50.8457 43.8729 50.7752 43.9858 50.7537C44.5621 50.6441 44.8235 50.5832 45.4634 50.4097C45.8472 50.3058 46.2469 50.2173 46.3518 50.213C46.4565 50.2089 46.7336 50.1387 46.9675 50.0573C47.4406 49.8923 47.456 49.8878 47.8031 49.815C48.0631 49.7605 50.343 49.0472 50.5532 48.9545C50.621 48.9248 50.6949 48.8937 50.7174 48.8857C50.74 48.8777 50.8139 48.8489 50.8816 48.8216C50.9493 48.7944 51.2634 48.6874 51.5794 48.5838C52.2174 48.3747 53.8611 47.735 54.3706 47.4974C55.1767 47.1217 55.3411 47.0491 55.4277 47.0307C55.6179 46.9903 57.4913 46.0293 57.5175 45.9587C57.5326 45.9181 57.6047 45.885 57.6779 45.885C57.8096 45.885 59.8893 44.6752 60.3634 44.3228C60.4989 44.2221 60.6651 44.1135 60.7328 44.0816C61.0021 43.9546 61.6009 43.498 62.109 43.0322C62.2232 42.9275 62.3469 42.842 62.384 42.842C62.421 42.842 62.6312 42.6804 62.8512 42.4828C63.071 42.2852 63.4325 41.9651 63.6543 41.7715C64.5265 41.0103 65.7065 39.7614 66.4942 38.7658C66.6441 38.5764 66.8677 38.3035 66.9911 38.1593C67.1146 38.0151 67.2162 37.8528 67.2169 37.7985C67.2176 37.7443 67.2472 37.6873 67.2826 37.6717C67.4494 37.5987 68.6597 35.8038 68.983 35.15C69.0634 34.9873 69.1567 34.8352 69.1903 34.8119C69.2518 34.7691 69.4178 34.4566 69.8065 33.6513C69.9239 33.4081 70.0546 33.1871 70.0968 33.1602C70.139 33.1334 70.1736 33.0356 70.1736 32.9429C70.1736 32.8503 70.2461 32.6338 70.3347 32.4619C70.5959 31.9552 71.1755 30.5839 71.2488 30.2992C71.2861 30.1545 71.4839 29.5302 71.6883 28.9119C71.8928 28.2935 72.0759 27.7039 72.0954 27.6017C72.1148 27.4994 72.1923 27.1685 72.2675 26.8663C72.6191 25.4541 72.7493 24.5446 72.9219 22.294C73.0524 20.593 73.0156 18.4135 72.84 17.4415C72.8148 17.3021 72.7968 17.0628 72.8002 16.9099C72.8034 16.7569 72.7797 16.5876 72.7474 16.5338C72.715 16.4799 72.6801 16.2627 72.6697 16.0511C72.6593 15.8396 72.5724 15.3241 72.4766 14.9057C72.3808 14.4873 72.2462 13.8977 72.1775 13.5955C71.8378 12.1029 71.1741 10.4314 70.3204 8.9189C70.1413 8.6015 69.977 8.36001 69.9553 8.38232C69.9176 8.42121 70.0822 8.77402 70.1791 8.86202C70.2047 8.88526 70.4401 9.33816 70.7021 9.8684C71.2677 11.0129 71.9154 12.7794 71.881 13.0836C71.8635 13.2377 71.7901 13.0937 71.6249 12.5812C71.0201 10.7047 69.8484 8.38765 69.0817 7.55184C68.9391 7.3964 69.2078 7.88539 69.4764 8.27032C69.6224 8.47953 69.8072 8.78383 69.8871 8.94654C69.967 9.10926 70.0591 9.26141 70.0919 9.28465C70.1247 9.3079 70.232 9.49808 70.3304 9.70729C70.506 10.0809 70.5061 10.0839 70.3375 9.87634C70.2431 9.76012 69.9594 9.34171 69.707 8.94654C69.1313 8.04506 68.2195 6.83336 68.1168 6.83336C68.0741 6.83336 68.0392 6.77909 68.0392 6.71274C68.0392 6.6463 67.9547 6.52272 67.8515 6.43802C67.7483 6.35324 67.6058 6.19763 67.5348 6.09214C67.3579 5.82909 65.5635 4.21301 65.4484 4.21301C65.3973 4.21301 65.2852 4.13254 65.1991 4.03424C65.1131 3.93593 64.9689 3.8219 64.8786 3.78074C64.7883 3.73966 64.5112 3.55235 64.2629 3.36444C64.0145 3.17654 63.7375 2.98576 63.6472 2.94045C63.5568 2.89515 63.3721 2.78315 63.2367 2.69152C63.1012 2.59989 62.9165 2.48646 62.8262 2.43937C62.7359 2.39229 62.5895 2.30616 62.501 2.24792C62.1625 2.02553 61.7533 1.78944 61.6153 1.73704C61.3655 1.6422 61.4601 1.8208 61.7385 1.96957C62.1647 2.19737 62.3481 2.30996 62.4891 2.43041C62.5616 2.49246 62.621 2.51359 62.621 2.47741C62.621 2.44132 62.6856 2.46887 62.7646 2.53878C62.8436 2.60868 62.9637 2.69211 63.0315 2.72423C63.1956 2.80217 63.3895 2.92752 63.965 3.3281C64.2301 3.51262 64.5273 3.70948 64.6254 3.76552C64.7234 3.82156 65.0099 4.04979 65.2619 4.27269C65.514 4.49559 65.8405 4.77301 65.9875 4.88923C66.4153 5.22734 67.153 5.91565 67.5071 6.30718C68.3307 7.21779 68.6138 7.56038 68.6138 7.64626C68.6138 7.6739 68.697 7.80424 68.7985 7.93585C69.4498 8.78002 70.3671 10.3508 70.2867 10.4847C70.2617 10.5264 70.3136 10.7203 70.4021 10.9158C70.6692 11.5052 71.3863 13.7638 71.5214 14.4408C71.5909 14.7895 71.7022 15.341 71.7687 15.6665C71.8352 15.9919 71.9319 16.6005 71.9836 17.0189C72.0896 17.8757 72.1384 22.5489 72.042 22.6102C72.0077 22.6321 71.9796 22.893 71.9796 23.1901C71.9796 24.0019 71.5277 26.4502 71.145 27.7116C70.61 29.475 69.3664 32.5511 68.883 33.307C68.7268 33.5513 68.5458 33.8471 68.4807 33.9645C68.4157 34.0819 68.2909 34.2921 68.2033 34.4315C68.1157 34.571 67.9824 34.7992 67.9071 34.9387C67.8316 35.0782 67.7437 35.2113 67.7116 35.2345C67.6795 35.2578 67.6059 35.3719 67.5481 35.4881C67.4452 35.695 66.5171 37.02 66.192 37.4241C65.3975 38.4119 63.6077 40.2377 62.621 41.0671C62.3727 41.2758 62.1298 41.4847 62.0813 41.5315C62.0328 41.5782 61.8726 41.7115 61.7253 41.8277C61.578 41.9439 61.4079 42.0866 61.3473 42.1447C61.2867 42.2028 61.221 42.2503 61.2012 42.2503C61.1814 42.2503 60.8036 42.501 60.3615 42.8074C59.9195 43.1138 59.5069 43.3848 59.4447 43.4094C59.3824 43.4339 59.0851 43.6207 58.7841 43.8242C58.483 44.0278 58.198 44.1945 58.1507 44.1947C58.1035 44.1948 57.8555 44.3248 57.5997 44.4836C57.344 44.6424 57.1131 44.7501 57.0867 44.7229C57.0602 44.6957 57.0386 44.7148 57.0386 44.7653C57.0386 44.8159 56.9282 44.8822 56.7932 44.9127C56.6584 44.9432 56.5275 45.0023 56.5025 45.0439C56.4774 45.0856 56.3201 45.1806 56.1527 45.255C55.7966 45.4133 55.4965 45.55 54.9863 45.7861C54.7831 45.8802 54.1736 46.1322 53.6317 46.3463C53.0899 46.5604 52.4886 46.8105 52.2955 46.9019C52.1024 46.9935 51.8552 47.0684 51.7462 47.0684C51.6372 47.0684 51.5269 47.1036 51.501 47.1467C51.4752 47.1898 51.0759 47.342 50.6137 47.4849C50.1515 47.6279 49.6071 47.802 49.4039 47.8719C49.2008 47.9418 48.6814 48.0889 48.2496 48.1987C47.818 48.3085 47.3377 48.4403 47.1824 48.4917C46.4816 48.7237 46.0522 48.8396 45.7115 48.8888C45.5093 48.918 45.3061 48.9667 45.2599 48.997C45.2139 49.0274 45.1485 49.0576 45.1146 49.0641C45.0806 49.0706 45.0438 49.0836 45.0325 49.093C45.0211 49.1023 44.938 49.1237 44.8477 49.1404C44.4158 49.2205 43.2321 49.4587 42.7544 49.5617C42.2897 49.6618 41.7958 49.7499 40.8252 49.906C40.6897 49.9278 40.3942 49.9817 40.1684 50.0258C39.9427 50.0699 39.4832 50.1283 39.1473 50.1557C38.8114 50.1832 38.5115 50.2216 38.4808 50.2411C38.4501 50.2606 38.1154 50.301 37.737 50.331C37.3585 50.3608 36.9196 50.3955 36.7615 50.4081C36.3786 50.4387 33.2071 50.549 32.739 50.5481C32.0308 50.5468 29.5658 50.4038 28.6753 50.3126C28.4496 50.2895 28.0986 50.2543 27.8954 50.2345C27.6923 50.2147 27.4152 50.1813 27.2797 50.1603C27.1443 50.1393 26.7195 50.0796 26.3357 50.0277C25.9519 49.9757 25.5455 49.913 25.4326 49.8884C25.0901 49.8135 24.5074 49.7031 24.1602 49.6472C23.9796 49.6181 23.7579 49.5699 23.6676 49.54C23.4727 49.4755 23.5165 49.4848 23.0333 49.405C22.8199 49.3697 22.6252 49.3073 22.6006 49.2664C22.576 49.2254 22.4836 49.2063 22.3952 49.2238C22.3068 49.2413 22.213 49.22 22.1868 49.1764C22.1606 49.1327 22.0327 49.097 21.9026 49.097C21.7725 49.097 21.6411 49.0554 21.6105 49.0046C21.58 48.9537 21.4144 48.9259 21.2426 48.9428C21.0708 48.9597 20.9365 48.939 20.9443 48.8969C20.9611 48.8067 20.5112 48.6617 20.4115 48.7253C20.3737 48.7493 20.3428 48.7304 20.3428 48.6832C20.3428 48.6361 20.2044 48.5719 20.035 48.5404C19.8657 48.509 19.6845 48.4486 19.6325 48.4063C19.4573 48.2637 19.0496 48.1802 18.9633 48.2691C18.9076 48.3264 18.8847 48.3035 18.8933 48.1994C18.9017 48.099 18.8484 48.0413 18.742 48.0354C18.6517 48.0304 18.4738 47.9819 18.3467 47.9277C18.2197 47.8735 18.0939 47.8291 18.0673 47.8291C18.0408 47.8291 17.8123 47.7268 17.5595 47.6017C17.3069 47.4765 17.0511 47.3653 16.9911 47.3546C16.9312 47.3438 16.7465 47.2669 16.5807 47.1838C16.4149 47.1006 16.2607 47.0278 16.2382 47.0221C16.1292 46.9941 15.798 46.8416 15.0276 46.4645C14.5649 46.2381 14.1586 46.0457 14.1246 46.0371C14.0905 46.0284 13.9911 45.9525 13.9035 45.8686C13.816 45.7847 13.6853 45.7159 13.6131 45.7159C13.5409 45.7159 13.3539 45.6033 13.1976 45.4658C13.0413 45.3282 12.8896 45.2141 12.8605 45.2122C12.793 45.2078 11.5035 44.3125 11.2252 44.0769C11.1095 43.9788 10.9101 43.8225 10.7823 43.7295C10.4024 43.4532 9.16237 42.3477 8.80699 41.9686C8.6254 41.7748 8.20828 41.3501 7.87991 41.0247C7.14328 40.2945 7.02129 40.1578 6.83354 39.8531C6.75161 39.7201 6.58069 39.5043 6.4537 39.3735C6.3267 39.2428 6.22277 39.0825 6.22277 39.0172C6.22277 38.9521 6.13058 38.8095 6.01786 38.7005C5.80557 38.4951 5.07346 37.4232 5.07346 37.3176C5.07346 37.2848 4.91067 37.0022 4.71175 36.6899C4.51284 36.3776 4.24505 35.8939 4.11658 35.6149C3.98818 35.336 3.86463 35.0887 3.84206 35.0655C3.79305 35.015 3.4453 34.2655 3.33217 33.9666C3.28817 33.8504 3.20025 33.6476 3.13663 33.516C3.07309 33.3844 3.02112 33.2274 3.02112 33.1672C3.02112 33.0449 2.57741 31.8441 2.41084 31.5153C2.1098 30.9213 1.68349 29.1711 1.41242 27.4158C1.14184 25.6635 1.12517 23.2764 1.37195 21.5986C1.46652 20.9561 1.57636 20.3665 1.61617 20.2884C1.65599 20.2103 1.71526 19.9807 1.74785 19.778C1.78044 19.5754 1.93256 19.1263 2.08575 18.7801C2.23902 18.4339 2.36437 18.0892 2.36437 18.014C2.36437 17.939 2.42135 17.8127 2.49096 17.7335C2.56058 17.6542 2.77525 17.2328 2.96792 16.797C3.30837 16.0271 3.57706 15.5198 3.75512 15.3108C3.8029 15.2546 3.84206 15.1846 3.84206 15.1551C3.84206 15.1256 3.91594 15.0047 4.00624 14.8865C4.09655 14.7683 4.17043 14.5889 4.17043 14.4879C4.17043 14.3713 4.29053 14.2134 4.49938 14.0555C4.68031 13.9188 4.85074 13.7204 4.87816 13.6147C4.90558 13.509 4.98857 13.3759 5.06254 13.3189C5.13659 13.2618 5.4556 12.9109 5.7715 12.539C6.0874 12.167 6.40132 11.8193 6.46905 11.7662C6.53677 11.713 6.85078 11.4184 7.16684 11.1114C7.94936 10.3513 8.19202 10.1299 8.24284 10.1299C8.32772 10.1299 8.89187 9.66088 9.08159 9.43258C9.1879 9.30477 9.31047 9.20012 9.35406 9.20012C9.39765 9.20012 9.55141 9.08618 9.69565 8.94697C9.83997 8.80766 10.0014 8.69355 10.0543 8.69338C10.1073 8.69313 10.2592 8.59897 10.3918 8.48401C10.5245 8.36905 10.6566 8.29932 10.6854 8.32907C10.7143 8.35874 10.7379 8.33862 10.7379 8.28444C10.7379 8.23017 10.786 8.1858 10.8449 8.1858C10.9037 8.1858 11.0976 8.07625 11.2759 7.94244C11.4541 7.80855 11.7846 7.59672 12.0104 7.47162C12.2361 7.34652 12.5316 7.17113 12.6671 7.08195C12.8026 6.99269 13.0057 6.87714 13.1186 6.82524C13.2315 6.77326 13.3793 6.696 13.447 6.65357C13.5147 6.61114 13.6994 6.51816 13.8575 6.4469C14.0155 6.37573 14.4588 6.15376 14.8426 5.95368C15.2264 5.75361 15.6327 5.5619 15.7456 5.52758C15.9431 5.46765 16.0644 5.4144 17.0591 4.95161C17.3074 4.83606 17.6584 4.6949 17.839 4.63793C18.0196 4.58096 18.3151 4.46406 18.4957 4.37826C18.6763 4.29238 19.055 4.1568 19.3372 4.07692C19.6194 3.99704 19.8503 3.89739 19.8503 3.85538C19.8503 3.78826 19.6981 3.81421 19.3865 3.93449C19.3347 3.95453 19.2697 3.9334 19.2421 3.8875C19.1916 3.80331 19.5278 3.66257 19.9623 3.58599C20.1909 3.54567 20.1934 3.54905 20.0522 3.70974C19.8501 3.93957 20.001 3.92689 20.7328 3.65268C21.3362 3.42657 21.5861 3.21432 21.0201 3.40873C20.4812 3.59385 20.2607 3.63003 20.2607 3.53341C20.2607 3.48329 20.2977 3.46579 20.3428 3.49453C20.388 3.52327 20.4249 3.50949 20.4249 3.46393C20.4249 3.41845 20.545 3.3543 20.6917 3.32142C20.8385 3.28854 21.0509 3.22582 21.1638 3.18195C21.2767 3.13816 21.3875 3.10063 21.4101 3.09869C21.4326 3.09666 21.6173 3.0276 21.8205 2.9451C22.0237 2.8626 22.2269 2.79414 22.272 2.79287C22.3172 2.79152 22.5943 2.71451 22.8877 2.62178C23.7817 2.33904 24.931 2.08275 25.3791 2.0661C25.6127 2.05748 25.8495 2.02122 25.9055 1.98555C25.9615 1.94996 26.0073 1.94016 26.0073 1.96374C26.0073 1.98732 26.1393 1.94988 26.3007 1.88048C26.462 1.81108 26.8776 1.73636 27.2242 1.71447C27.7997 1.67821 29.325 1.48793 30.0299 1.36444C30.1879 1.33672 30.6866 1.30645 31.1381 1.29716C31.5896 1.28786 31.996 1.26994 32.0412 1.25743C32.0863 1.24483 32.1602 1.23875 32.2053 1.24399C32.2505 1.24914 33.5065 1.27239 34.9965 1.29555C36.4865 1.31871 37.8164 1.35463 37.9519 1.37534C38.0873 1.39605 38.4014 1.43544 38.6497 1.46291C38.898 1.49039 39.1936 1.53054 39.3064 1.55226C39.4193 1.57398 39.6779 1.61194 39.8811 1.6367C40.0843 1.66147 40.5073 1.71819 40.8211 1.76273C41.1349 1.80728 41.412 1.81582 41.4368 1.78158C41.4616 1.74743 41.5281 1.71565 41.5845 1.711C41.9285 1.68268 41.9681 1.65834 41.7692 1.59748C41.6564 1.56291 41.4993 1.56807 41.4203 1.60889C41.3296 1.65581 41.2767 1.6509 41.2767 1.59562C41.2767 1.54753 41.219 1.50814 41.1487 1.50814C41.0783 1.50814 41.0435 1.54617 41.0714 1.59266C41.0994 1.63915 41.083 1.67719 41.0352 1.67719C40.9875 1.67719 40.9483 1.64169 40.9483 1.59833C40.9483 1.49842 40.7675 1.44237 40.2505 1.38228C40.0248 1.35607 39.7107 1.31279 39.5527 1.28617C39.3947 1.25954 39.0437 1.22387 38.7728 1.20688C38.5019 1.18989 38.1879 1.15566 38.075 1.13081C37.7587 1.06116 35.4897 0.978657 33.8472 0.977051C32.1118 0.975445 30.5613 1.05727 29.3321 1.21542C29.2869 1.22125 28.9914 1.25895 28.6753 1.29918C28.3593 1.33942 28.0822 1.3767 28.0596 1.38202C28.0371 1.38735 27.7415 1.42133 27.4029 1.4575C26.8635 1.51515 26.5714 1.56756 25.8842 1.73002C25.7209 1.76865 25.4961 1.81252 24.2423 2.05089C23.8811 2.11952 23.4747 2.21098 23.3393 2.25401C23.2038 2.29712 22.8898 2.37894 22.6415 2.43591C22.0295 2.57631 19.9688 3.22244 19.1114 3.54279C18.7277 3.68624 18.1735 3.89054 17.88 3.99671C17.2741 4.21605 16.2117 4.65103 15.6635 4.90428C14.3773 5.49842 14.0359 5.64998 13.9835 5.64998C13.9575 5.64998 13.79 5.74507 13.6112 5.86129C13.1993 6.12899 12.9896 6.14767 13.1377 5.90356C13.1941 5.81058 13.3002 5.7345 13.3736 5.7345C13.4469 5.7345 13.6008 5.65843 13.7157 5.56545C13.8305 5.47247 13.9647 5.39639 14.014 5.39639C14.0633 5.39639 14.3572 5.26326 14.6673 5.10055C14.9775 4.93783 15.2823 4.80453 15.3447 4.80437C15.4071 4.8042 15.57 4.73395 15.7065 4.64816C15.8431 4.56245 16.1016 4.44352 16.2812 4.38393C16.4607 4.32425 16.6445 4.24572 16.6897 4.20938C16.8289 4.09721 18.4734 3.48177 19.4954 3.15929C20.0292 2.99083 20.5399 2.82051 20.6302 2.78069C20.7205 2.74088 21.1585 2.602 21.6036 2.47192C22.0486 2.34191 22.4312 2.18596 22.4538 2.12544C22.4764 2.06483 22.53 2.0153 22.573 2.0153C22.616 2.0153 22.6259 2.05739 22.595 2.10887C22.5587 2.16931 22.5934 2.18655 22.6928 2.15748C22.8239 2.1191 23.2103 2.02857 23.5034 1.96746C23.5486 1.95808 23.7514 1.90398 23.9541 1.84734C24.1569 1.79063 24.4155 1.73171 24.5288 1.71633C24.6422 1.70094 24.9565 1.62774 25.2274 1.55361C25.4983 1.47948 25.8493 1.4002 26.0073 1.37737C26.1653 1.35455 26.4239 1.31279 26.5819 1.28456C26.74 1.25633 26.9801 1.22049 27.1156 1.20494C27.7711 1.12954 27.9465 1.1008 28.0679 1.04881C28.1402 1.01788 28.2325 1.00089 28.2732 1.01103C28.3137 1.02117 28.4763 1.00325 28.6343 0.971303C28.7923 0.939352 29.1383 0.899456 29.4033 0.882635C29.682 0.865053 29.9128 0.805715 29.9511 0.741812C29.9996 0.661088 30.0465 0.656101 30.1263 0.723216C30.1861 0.773679 30.4013 0.802418 30.6045 0.787118C32.594 0.63742 35.8513 0.586957 37.2951 0.683572C37.7015 0.710705 38.034 0.737923 38.034 0.743925C38.034 0.806813 38.8875 0.793796 39.0259 0.728794C39.1642 0.663962 39.2768 0.678162 39.4837 0.786526C39.6345 0.865559 39.9981 0.94231 40.2916 0.957187C40.585 0.971979 40.8899 1.00689 40.9688 1.03478C41.3073 1.1543 41.3588 1.16031 41.3588 1.08094C41.3588 1.03478 41.4477 1.0571 41.5564 1.13038C41.688 1.21922 41.7719 1.23393 41.8077 1.17434C41.8372 1.12514 41.9422 1.10249 42.041 1.12396C42.1399 1.14551 42.3685 1.18262 42.5491 1.20646C42.9394 1.25802 43.0531 1.28228 43.6984 1.45159C43.9693 1.52267 44.3245 1.60145 44.4877 1.62673C44.6508 1.65192 44.8895 1.71379 45.0181 1.76409C45.1466 1.81446 45.3334 1.8345 45.4332 1.80872C45.6457 1.75386 45.8919 1.83238 45.8301 1.93542C45.8065 1.97464 45.8714 2.05139 45.9742 2.10591C46.1287 2.18774 46.1433 2.18554 46.0586 2.09323C45.8902 1.90981 45.9414 1.8241 46.1818 1.88724C46.306 1.91995 46.4723 1.95994 46.5515 1.97616C46.6307 1.99239 46.7261 2.02527 46.7636 2.04911C46.8012 2.07295 46.958 2.11437 47.1122 2.14108C47.2665 2.16779 47.6143 2.26187 47.8852 2.3502C48.1561 2.43853 48.9319 2.68941 49.6092 2.90766C50.2864 3.12591 50.8775 3.33241 50.9227 3.36647C50.9678 3.40062 51.1895 3.49749 51.4152 3.58176C51.641 3.66603 51.8719 3.7711 51.9283 3.81531C51.9848 3.85943 52.0309 3.86729 52.0309 3.83264C52.0309 3.79798 52.0956 3.81979 52.1746 3.88107C52.3042 3.98158 52.3063 3.97921 52.1951 3.85707C51.9998 3.64237 50.6139 3.07451 49.2447 2.64807C48.5525 2.43244 47.9266 2.22467 47.8537 2.18622C47.7807 2.14776 47.5732 2.07557 47.3926 2.02578C46.3434 1.73653 45.4984 1.50805 45.3066 1.46165C45.2348 1.44423 44.936 1.3685 44.6425 1.29335C44.349 1.21812 44.0166 1.14061 43.9037 1.121C43.7908 1.10148 43.5787 1.06479 43.4323 1.03952C43.1322 0.987701 43.1507 0.991083 42.7368 0.913148C42.5415 0.876379 42.4184 0.889397 42.3944 0.949496C42.3691 1.01264 42.3547 1.01002 42.3504 0.94138C42.3469 0.885423 42.2054 0.816956 42.036 0.789231C41.8668 0.761506 41.4327 0.685263 41.0714 0.619669C40.7102 0.554161 40.1746 0.475973 39.8811 0.445881C39.5876 0.415874 39.2921 0.380795 39.2243 0.367862C39.1566 0.354929 38.7503 0.317907 38.3213 0.285618C37.8924 0.253413 37.4306 0.207684 37.2951 0.184185C36.9046 0.11631 32.4343 0.100671 31.7538 0.164743ZM27.4524 0.310637C27.4292 0.349435 27.4639 0.381134 27.5296 0.381134C27.5954 0.381134 27.6492 0.349435 27.6492 0.310637C27.6492 0.271923 27.6144 0.240226 27.5719 0.240226C27.5294 0.240226 27.4756 0.271923 27.4524 0.310637ZM27.8801 0.297958C27.9393 0.322387 28.0101 0.319344 28.0374 0.291281C28.0646 0.263218 28.0162 0.243269 27.9297 0.246904C27.834 0.250961 27.8146 0.270994 27.8801 0.297958ZM24.1602 0.916445C24.0019 0.986518 24.0025 0.989307 24.1759 0.995055C24.2748 0.998267 24.3786 0.962935 24.4065 0.916445C24.4665 0.816449 24.3861 0.816449 24.1602 0.916445ZM23.2982 1.10046C22.9743 1.24069 23.2293 1.27104 23.5896 1.13512C23.8498 1.03707 23.8733 1.01281 23.7087 1.0123C23.5958 1.01196 23.4111 1.05169 23.2982 1.10046ZM60.1582 1.0855C60.1582 1.13199 60.1973 1.17003 60.2451 1.17003C60.2929 1.17003 60.3092 1.13199 60.2813 1.0855C60.2534 1.03901 60.2143 1.00097 60.1944 1.00097C60.1744 1.00097 60.1582 1.03901 60.1582 1.0855ZM60.4045 1.14349C60.4045 1.24272 61.217 1.71404 61.2787 1.65056C61.3018 1.62664 61.1793 1.54043 61.0063 1.45894C60.8333 1.37746 60.6271 1.25413 60.5481 1.18499C60.4692 1.11585 60.4045 1.09716 60.4045 1.14349ZM22.0754 1.43079C21.9672 1.47534 21.8984 1.53189 21.9222 1.55649C21.946 1.58108 22.09 1.54533 22.242 1.47703C22.5441 1.34128 22.3939 1.29961 22.0754 1.43079ZM30.3377 1.65319C30.2136 1.67254 30.112 1.71734 30.112 1.75267C30.112 1.78801 30.2228 1.80018 30.3582 1.77972C30.4937 1.75927 30.6045 1.7088 30.6045 1.66764C30.6045 1.62639 30.5953 1.59833 30.584 1.60534C30.5728 1.61227 30.4618 1.63383 30.3377 1.65319ZM30.6866 1.66925C30.6866 1.71143 30.7605 1.72596 30.8508 1.7017C30.9411 1.67736 31.015 1.64287 31.015 1.62504C31.015 1.60729 30.9411 1.59266 30.8508 1.59266C30.7605 1.59266 30.6866 1.62715 30.6866 1.66925ZM31.3238 1.65242C31.426 1.67263 31.5737 1.67187 31.6522 1.65073C31.7307 1.6296 31.6471 1.61303 31.4665 1.61396C31.2859 1.61489 31.2217 1.63222 31.3238 1.65242ZM28.5522 1.84625C28.5522 1.89274 28.6283 1.93077 28.7212 1.93077C28.8141 1.93077 28.8674 1.89274 28.8395 1.84625C28.8116 1.79976 28.7356 1.76172 28.6705 1.76172C28.6054 1.76172 28.5522 1.79976 28.5522 1.84625ZM29.0037 1.84625C28.9395 1.95326 29.0482 1.95326 29.2089 1.84625C29.3151 1.77567 29.3129 1.76417 29.1933 1.76299C29.1169 1.76231 29.0316 1.79976 29.0037 1.84625ZM42.5671 1.92781C42.5397 2.03584 42.5722 2.10752 42.6602 2.13288C43.0217 2.23685 43.4109 2.29813 43.8216 2.31579C44.2879 2.33583 45.5131 2.64317 45.6737 2.78027C45.7976 2.88627 46.9411 2.95313 46.9411 2.8544C46.9411 2.81129 46.8211 2.77165 46.6743 2.76633C46.2657 2.75136 46.2424 2.74418 46.0883 2.58586C46.009 2.50446 45.8592 2.43794 45.7552 2.43794C45.6513 2.43794 45.4072 2.38021 45.2128 2.30954C45.0185 2.23896 44.5983 2.14099 44.2789 2.09171C43.9597 2.04252 43.5163 1.94819 43.2936 1.882C42.7536 1.72157 42.6173 1.73019 42.5671 1.92781ZM20.3634 1.93339C20.0791 2.05106 20.1446 2.10287 20.4455 1.9984C20.5922 1.94734 20.7277 1.89231 20.7465 1.876C20.8132 1.81793 20.5452 1.85816 20.3634 1.93339ZM28.0186 1.93077C27.9907 1.97726 28.007 2.0153 28.0548 2.0153C28.1026 2.0153 28.1417 1.97726 28.1417 1.93077C28.1417 1.88428 28.1255 1.84625 28.1055 1.84625C28.0856 1.84625 28.0465 1.88428 28.0186 1.93077ZM19.7477 2.11352C19.6235 2.16027 19.5219 2.23042 19.5219 2.26947C19.5219 2.32729 19.9637 2.15232 20.0897 2.04455C20.1512 1.99197 19.9782 2.02688 19.7477 2.11352ZM46.2526 2.19982C46.2763 2.2393 46.3301 2.24978 46.3721 2.22298C46.4795 2.15469 46.4675 2.12797 46.329 2.12797C46.2633 2.12797 46.2289 2.16035 46.2526 2.19982ZM19.2756 2.35341C19.2017 2.4026 19.1915 2.43582 19.2503 2.43667C19.304 2.43735 19.3709 2.3999 19.3988 2.35341C19.4617 2.24843 19.4333 2.24843 19.2756 2.35341ZM18.9883 2.43794C18.9604 2.48443 18.9767 2.52246 19.0245 2.52246C19.0723 2.52246 19.1114 2.48443 19.1114 2.43794C19.1114 2.39145 19.0952 2.35341 19.0752 2.35341C19.0553 2.35341 19.0162 2.39145 18.9883 2.43794ZM25.0632 2.43794C25.0032 2.53793 25.0836 2.53793 25.3095 2.43794C25.4678 2.36786 25.4672 2.36508 25.2938 2.35933C25.1949 2.35612 25.0911 2.39145 25.0632 2.43794ZM24.1602 2.56972C23.9344 2.63582 23.5281 2.74714 23.2572 2.81696C22.9863 2.88678 22.5833 3.00123 22.3616 3.0713C22.14 3.14137 21.8515 3.19868 21.7205 3.19868C21.5896 3.19868 21.5023 3.23173 21.5266 3.27222C21.5709 3.34601 21.8726 3.3024 22.5594 3.12286C22.7625 3.06969 23.3709 2.91104 23.9111 2.77021C24.4515 2.62931 24.9101 2.49694 24.9305 2.47606C25.0057 2.39863 24.5581 2.45298 24.1602 2.56972ZM17.7979 2.83657C17.3862 2.98331 17.3413 3.01027 17.4027 3.07341C17.426 3.0975 17.5522 3.05964 17.6831 2.98939C17.814 2.91915 17.9836 2.86142 18.0599 2.86108C18.1363 2.86083 18.2215 2.82254 18.2495 2.77605C18.3148 2.66718 18.2478 2.67622 17.7979 2.83657ZM47.1874 3.02904C47.1874 3.12954 47.721 3.25802 47.8878 3.19758C48.0373 3.14357 48.034 3.13402 47.8442 3.07071C47.5765 2.98145 47.1874 2.95677 47.1874 3.02904ZM16.9473 3.17299C16.9159 3.20528 16.8451 3.23976 16.7899 3.24965C16.6383 3.27662 15.7456 3.69807 15.7456 3.74262C15.7456 3.79198 16.2099 3.62656 16.4825 3.48007C16.5964 3.41888 16.7313 3.36858 16.7823 3.36824C16.8332 3.36799 16.9208 3.31068 16.977 3.24095C17.0789 3.11449 17.0557 3.06133 16.9473 3.17299ZM48.3568 3.25946C48.1861 3.3226 48.3305 3.45227 48.5714 3.45227C48.6952 3.45227 48.8454 3.49985 48.9052 3.55792C48.9929 3.64304 49.0069 3.63975 48.9776 3.5406C48.9353 3.39741 48.5074 3.20367 48.3568 3.25946ZM15.5482 3.76924C15.5148 3.80407 15.3701 3.88057 15.2266 3.93906L14.9657 4.04548L15.212 3.99687C15.4171 3.95647 15.7974 3.70585 15.6537 3.70585C15.629 3.70585 15.5815 3.73442 15.5482 3.76924ZM49.8811 4.01716C49.9403 4.04159 50.0112 4.03855 50.0384 4.01048C50.0657 3.98242 50.0173 3.96247 49.9307 3.96611C49.8351 3.97016 49.8156 3.9902 49.8811 4.01716ZM14.7073 4.12789C14.4171 4.24851 14.3889 4.38883 14.6756 4.28587C14.8126 4.23668 14.9247 4.16213 14.9247 4.1202C14.9247 4.07827 14.9154 4.04641 14.9042 4.04928C14.8929 4.05224 14.8043 4.08766 14.7073 4.12789ZM18.01 4.19188C17.9479 4.25578 17.9052 4.2677 17.668 4.28697C17.5965 4.29281 17.5523 4.34175 17.5698 4.39584C17.6094 4.51807 17.8631 4.56321 17.9256 4.45907C17.951 4.41672 18.058 4.38207 18.1634 4.38207C18.2688 4.38207 18.3763 4.32501 18.4023 4.25528C18.4359 4.16517 18.3948 4.12848 18.2605 4.12848C18.1566 4.12848 18.0439 4.15705 18.01 4.19188ZM53.2549 4.33059C53.335 4.42999 53.837 4.57293 53.837 4.49635C53.837 4.4491 53.3533 4.21301 53.2563 4.21301C53.1834 4.21301 53.1831 4.24158 53.2549 4.33059ZM16.8133 4.70158C16.6604 4.78154 16.5193 4.90402 16.4996 4.97376C16.4708 5.07604 16.4849 5.08018 16.5727 4.99489C16.6325 4.93682 16.7435 4.88923 16.8192 4.88923C16.9588 4.88923 17.1952 4.66312 17.128 4.59389C17.1079 4.5731 16.9663 4.62162 16.8133 4.70158ZM54.0012 4.63565C54.0012 4.68214 54.0403 4.72018 54.0881 4.72018C54.1359 4.72018 54.1522 4.68214 54.1243 4.63565C54.0964 4.58916 54.0573 4.55112 54.0374 4.55112C54.0174 4.55112 54.0012 4.58916 54.0012 4.63565ZM13.5701 4.72018C13.5422 4.76667 13.5563 4.8047 13.6015 4.8047C13.6466 4.8047 13.7064 4.76667 13.7343 4.72018C13.7622 4.67369 13.7481 4.63565 13.703 4.63565C13.6578 4.63565 13.598 4.67369 13.5701 4.72018ZM12.856 5.08161C12.5986 5.22844 12.4003 5.36115 12.4152 5.37653C12.4609 5.42361 13.3649 4.94299 13.3649 4.87165C13.3649 4.78577 13.3988 4.77182 12.856 5.08161ZM52.6877 5.09066C52.6877 5.10849 52.7616 5.14298 52.8519 5.16732C52.9423 5.19167 52.9956 5.17705 52.9702 5.13495C52.9261 5.06133 52.6877 5.02397 52.6877 5.09066ZM15.5012 5.25363C15.1919 5.41372 15.1858 5.58083 15.4933 5.47044C15.6322 5.42057 15.7649 5.34804 15.7881 5.30941C15.8641 5.18288 15.6996 5.15093 15.5012 5.25363ZM11.9706 5.57027C11.8133 5.66063 11.7445 5.7345 11.8178 5.7345C11.8912 5.7345 12.0384 5.6597 12.1449 5.56824C12.3882 5.35962 12.3366 5.36022 11.9706 5.57027ZM53.7549 5.51287C53.7549 5.53037 53.8196 5.59698 53.8986 5.6608C54.0288 5.76586 54.0316 5.7629 53.9296 5.62884C53.8223 5.48802 53.7549 5.44331 53.7549 5.51287ZM14.6327 5.68531C14.5451 5.75124 14.5012 5.83374 14.535 5.86856C14.6052 5.94083 15.0068 5.74253 15.0068 5.63569C15.0068 5.52657 14.8087 5.55285 14.6327 5.68531ZM11.3262 5.9443C11.1136 6.06492 10.9221 6.24167 11.0041 6.24167C11.0747 6.24167 11.6409 5.89604 11.6409 5.85293C11.6409 5.7968 11.5287 5.82943 11.3262 5.9443ZM54.4116 5.90356C54.4116 5.95005 54.4508 5.98809 54.4986 5.98809C54.5464 5.98809 54.5627 5.95005 54.5348 5.90356C54.5069 5.85707 54.4678 5.81903 54.4478 5.81903C54.4279 5.81903 54.4116 5.85707 54.4116 5.90356ZM68.0577 5.9525C68.1357 6.03627 68.2171 6.08665 68.2387 6.06441C68.2603 6.04218 68.1965 5.97363 68.097 5.91201C67.9241 5.80508 67.9223 5.80694 68.0577 5.9525ZM68.3258 6.24167C68.393 6.36575 68.455 6.44589 68.7537 6.79397C68.8348 6.88847 69.0078 7.12625 69.1381 7.32227C69.2683 7.51828 69.4069 7.67863 69.4459 7.67863C69.4849 7.67863 69.5168 7.72909 69.5168 7.79071C69.5168 7.85234 69.6166 7.99493 69.7384 8.10769L69.9601 8.31259L69.8081 8.05901C69.4306 7.42911 68.057 5.74499 68.3258 6.24167ZM10.6148 6.41072C10.4793 6.50311 10.4106 6.57893 10.462 6.57919C10.5517 6.57978 10.9864 6.2497 10.9021 6.24505C10.8795 6.24378 10.7502 6.31833 10.6148 6.41072ZM12.1335 6.45299C12.0773 6.52272 11.983 6.57978 11.9241 6.57978C11.8004 6.57978 11.5315 6.83344 11.5907 6.8943C11.662 6.96784 12.3798 6.55273 12.3798 6.43802C12.3798 6.28892 12.2598 6.29627 12.1335 6.45299ZM13.1563 6.41638C13.1265 6.46592 13.1219 6.52678 13.146 6.55163C13.2048 6.61215 13.3649 6.50548 13.3649 6.40574C13.3649 6.29771 13.2232 6.30489 13.1563 6.41638ZM9.89793 6.86506C9.68432 7.01036 9.5088 7.16006 9.50798 7.19784C9.50716 7.23563 9.68194 7.14112 9.89645 6.98788C10.111 6.83454 10.3018 6.69913 10.3206 6.68679C10.3394 6.67436 10.3394 6.65002 10.3206 6.63261C10.3018 6.61519 10.1116 6.71984 9.89793 6.86506ZM12.1732 6.96074C11.8615 7.25092 11.8577 7.26031 12.0925 7.16048C12.4089 7.02591 12.5712 6.87537 12.5317 6.75314C12.5139 6.69828 12.3588 6.78814 12.1732 6.96074ZM68.3675 6.69625C68.3675 6.71375 68.4322 6.78036 68.5112 6.84418C68.6414 6.94925 68.6443 6.94629 68.5422 6.81223C68.4349 6.6714 68.3675 6.62669 68.3675 6.69625ZM10.9965 7.16724C11.0318 7.2762 11.1444 7.29581 11.1545 7.19471C11.1579 7.16099 11.1164 7.11822 11.0622 7.09962C11.008 7.08102 10.9784 7.11145 10.9965 7.16724ZM68.6959 7.11889C68.6959 7.13639 68.7606 7.203 68.8396 7.26681C68.9698 7.37188 68.9726 7.36892 68.8706 7.23486C68.7633 7.09404 68.6959 7.04933 68.6959 7.11889ZM11.2287 7.50315C10.9343 7.68506 10.6203 7.9219 10.531 8.02951C10.4416 8.13711 10.4239 8.18292 10.4916 8.13128C10.5594 8.07963 10.7053 8.00871 10.8161 7.97372C11.048 7.90026 11.8051 7.33706 11.8051 7.23799C11.8051 7.14459 11.8206 7.13749 11.2287 7.50315ZM8.99359 7.49614C8.68697 7.68666 8.70511 7.7919 9.01345 7.61126C9.14858 7.53215 9.2594 7.43883 9.25973 7.40392C9.26031 7.32725 9.27172 7.32336 8.99359 7.49614ZM7.79141 8.44876C7.68346 8.53887 7.60957 8.62745 7.62722 8.64554C7.64495 8.66363 7.74774 8.60463 7.85577 8.51452C7.96372 8.42442 8.03761 8.33583 8.01996 8.31774C8.00222 8.29965 7.89944 8.35865 7.79141 8.44876ZM7.42683 8.74934C7.3967 8.78028 7.37208 8.84494 7.37208 8.89304C7.37208 8.94595 7.41033 8.94096 7.46919 8.88036C7.52263 8.82533 7.54726 8.76067 7.52395 8.73666C7.50063 8.71266 7.45688 8.71832 7.42683 8.74934ZM9.07551 8.97968C8.99646 9.04147 8.93185 9.13411 8.93185 9.18567C8.93185 9.37231 9.33731 9.1145 9.34109 8.92541C9.34289 8.83142 9.23773 8.85289 9.07551 8.97968ZM6.73462 9.42286C6.566 9.59191 6.50147 9.67745 6.5912 9.61304C6.85054 9.42708 7.17111 9.1156 7.10322 9.1156C7.06915 9.1156 6.90332 9.25389 6.73462 9.42286ZM6.06096 10.0421C5.99455 10.0854 5.96155 10.1428 5.98765 10.1697C6.01384 10.1965 6.08189 10.1605 6.13903 10.0897C6.25749 9.94278 6.23475 9.92892 6.06096 10.0421ZM5.57119 10.5883L5.28904 10.9329L5.60813 10.6187C5.78365 10.446 5.91056 10.2909 5.89029 10.2741C5.87001 10.2574 5.72635 10.3988 5.57119 10.5883ZM7.25567 10.4752C7.13852 10.6186 7.06693 10.7765 7.09673 10.8261C7.14771 10.9111 7.61113 10.4221 7.61614 10.2778C7.62098 10.1387 7.45753 10.2281 7.25567 10.4752ZM6.79578 10.4278C6.73864 10.4986 6.71475 10.5802 6.74266 10.6089C6.80235 10.6703 7.0437 10.4812 7.0437 10.3732C7.0437 10.2567 6.90989 10.2862 6.79578 10.4278ZM70.599 10.5948C70.6504 10.7111 70.7227 10.8061 70.7596 10.8061C70.7966 10.8061 70.7848 10.7111 70.7333 10.5948C70.6819 10.4786 70.6096 10.3835 70.5726 10.3835C70.5357 10.3835 70.5475 10.4786 70.599 10.5948ZM4.74508 11.5025C4.39955 11.9129 4.37895 11.9397 3.75807 12.7816C3.48815 13.1476 3.26855 13.471 3.27003 13.5001C3.27315 13.5639 3.53232 13.2465 3.92415 12.6992C4.08218 12.4784 4.24842 12.256 4.29357 12.205C4.58911 11.871 5.08635 11.2141 5.06188 11.1901C5.04563 11.1741 4.90311 11.3147 4.74508 11.5025ZM5.29068 12.6241C5.20694 12.6876 5.15194 12.7813 5.16844 12.8323C5.1888 12.8953 5.24799 12.8879 5.35249 12.8092C5.43721 12.7455 5.49222 12.6517 5.47473 12.6009C5.45314 12.5383 5.39371 12.5458 5.29068 12.6241ZM4.82718 13.1779C4.82718 13.2271 4.86412 13.2439 4.90927 13.2152C4.95442 13.1864 4.99136 13.1462 4.99136 13.1257C4.99136 13.1051 4.95442 13.0884 4.90927 13.0884C4.86412 13.0884 4.82718 13.1287 4.82718 13.1779ZM3.81874 13.841C3.66326 14.1119 3.63846 14.2718 3.75184 14.2718C3.81669 14.2718 4.17043 13.732 4.17043 13.633C4.17043 13.4984 3.93556 13.6373 3.81874 13.841ZM2.73905 14.3315C2.69455 14.452 2.70391 14.4617 2.78502 14.3789C2.84117 14.3215 2.86638 14.2533 2.84109 14.2273C2.81581 14.2013 2.76992 14.2482 2.73905 14.3315ZM72.1568 14.4408C72.1568 14.557 72.1754 14.6046 72.1982 14.5465C72.221 14.4884 72.221 14.3933 72.1982 14.3352C72.1754 14.2771 72.1568 14.3246 72.1568 14.4408ZM2.4156 14.8245C2.33638 15.037 2.35969 15.0918 2.45648 14.9205C2.50443 14.8356 2.52634 14.7484 2.50516 14.7267C2.48407 14.7049 2.44368 14.7489 2.4156 14.8245ZM72.2324 14.8282C72.2363 14.9267 72.2558 14.9467 72.282 14.8793C72.3057 14.8183 72.3028 14.7454 72.2755 14.7173C72.2482 14.6892 72.2289 14.7391 72.2324 14.8282ZM3.32897 15.3087C3.20476 15.5535 3.10445 15.7911 3.10592 15.8369C3.10995 15.9583 3.43159 15.5405 3.43159 15.4139C3.43159 15.355 3.487 15.2595 3.55473 15.2016C3.62246 15.1437 3.67787 15.0439 3.67787 14.9799C3.67787 14.7513 3.55128 14.8706 3.32897 15.3087ZM2.22014 15.2227C2.09823 15.3794 1.77396 16.0588 1.80556 16.0914C1.82059 16.1069 1.94775 15.8939 2.08821 15.6183C2.3436 15.1168 2.37439 15.0245 2.22014 15.2227ZM72.4462 15.9623C72.4731 16.1715 72.5084 16.3586 72.5247 16.3779C72.5864 16.4513 72.5395 15.9124 72.4701 15.751C72.4215 15.6382 72.4136 15.7083 72.4462 15.9623ZM1.59918 16.5156C1.40634 16.9321 1.43352 17.0029 1.63506 16.6095C1.72667 16.4307 1.78709 16.2695 1.76936 16.2512C1.75155 16.233 1.67504 16.352 1.59918 16.5156ZM1.22623 17.3912C1.12977 17.6221 1.05178 17.861 1.05285 17.9221C1.05392 17.9832 1.14512 17.807 1.25554 17.5305C1.36587 17.254 1.44394 17.0151 1.42892 16.9996C1.4139 16.9842 1.32269 17.1604 1.22623 17.3912ZM72.6802 18.623C72.7611 19.8135 72.882 20.0123 72.8394 18.8848C72.82 18.3698 72.7645 17.9212 72.7138 17.8704C72.6476 17.8042 72.6384 18.0075 72.6802 18.623ZM0.937918 18.2056C0.858698 18.4181 0.882012 18.4729 0.9788 18.3016C1.02674 18.2167 1.04866 18.1295 1.02748 18.1078C1.00638 18.086 0.965994 18.13 0.937918 18.2056ZM72.1951 18.5437C72.1669 18.6192 72.1462 18.7254 72.149 18.7798C72.1519 18.834 72.1896 18.7874 72.2329 18.6761C72.2762 18.5647 72.2969 18.4585 72.2789 18.44C72.2609 18.4215 72.2231 18.4681 72.1951 18.5437ZM0.709862 18.9235C0.635239 19.1544 0.58861 19.3434 0.606178 19.3434C0.66742 19.3434 0.892109 18.7166 0.868959 18.6104C0.856152 18.5516 0.784567 18.6925 0.709862 18.9235ZM0.530406 19.5759C0.428856 19.9616 0.395772 20.2241 0.463828 20.1042C0.544772 19.9615 0.654449 19.4279 0.602812 19.4279C0.584423 19.4279 0.551832 19.4945 0.530406 19.5759ZM1.51118 19.5283C1.28682 20.3292 1.26884 20.4423 1.36571 20.4423C1.46529 20.4423 1.70007 19.5176 1.61445 19.4631C1.57472 19.4379 1.52825 19.4672 1.51118 19.5283ZM0.260647 20.8198C0.23528 20.8881 0.230272 20.9926 0.249646 21.0523C0.26902 21.112 0.30432 21.0561 0.328127 20.9283C0.374592 20.6787 0.336255 20.6171 0.260647 20.8198ZM1.19454 20.9137C1.16072 20.9488 1.13412 21.0759 1.13543 21.196C1.13765 21.3875 1.14841 21.3958 1.22311 21.2638C1.31653 21.0984 1.29314 20.8112 1.19454 20.9137ZM0.160821 21.5411C0.160821 21.6573 0.179456 21.7049 0.202196 21.6468C0.225018 21.5887 0.225018 21.4936 0.202196 21.4355C0.179456 21.3774 0.160821 21.4249 0.160821 21.5411ZM0.0864442 22.0905C0.0873473 22.2765 0.104177 22.3426 0.123797 22.2375C0.143417 22.1323 0.142678 21.9802 0.122155 21.8993C0.101632 21.8185 0.0855412 21.9046 0.0864442 22.0905ZM0.984793 22.5132C0.986435 22.6527 1.00482 22.6995 1.02568 22.6172C1.04653 22.535 1.04513 22.4209 1.02264 22.3637C1.00014 22.3064 0.983151 22.3737 0.984793 22.5132ZM0.00714197 23.2739C0.00779871 23.5064 0.0237248 23.5914 0.0426063 23.4629C0.0614057 23.3344 0.0609131 23.1443 0.041457 23.0403C0.0220008 22.9363 0.00656731 23.0415 0.00714197 23.2739ZM0.00599266 25.1758C0.00599266 25.385 0.022001 25.4706 0.0416214 25.366C0.0611596 25.2613 0.0611596 25.0903 0.0416214 24.9856C0.022001 24.881 0.00599266 24.9666 0.00599266 25.1758ZM0 25.8097C0 25.9027 0.0296356 26.0739 0.0657568 26.1901C0.117804 26.3575 0.131514 26.3663 0.131514 26.2324C0.131514 26.1394 0.101878 25.9682 0.0657568 25.852C0.0137095 25.6846 0 25.6759 0 25.8097ZM0.0787276 26.6128C0.0787276 26.729 0.0973626 26.7766 0.120103 26.7184C0.142925 26.6603 0.142925 26.5653 0.120103 26.5071C0.0973626 26.449 0.0787276 26.4965 0.0787276 26.6128ZM0.154335 27.2537C0.158276 27.3522 0.177732 27.3722 0.20392 27.3049C0.227645 27.2438 0.22469 27.1709 0.197435 27.1428C0.17018 27.1148 0.150805 27.1646 0.154335 27.2537ZM0.236429 27.8454C0.240369 27.9439 0.259826 27.9639 0.286013 27.8966C0.309738 27.8355 0.306783 27.7626 0.279528 27.7345C0.252273 27.7065 0.232899 27.7563 0.236429 27.8454ZM0.318522 28.2681C0.322463 28.3665 0.341919 28.3866 0.368107 28.3192C0.391832 28.2582 0.388877 28.1852 0.361622 28.1572C0.334367 28.1291 0.314992 28.179 0.318522 28.2681ZM1.29839 28.4885C1.29773 28.6136 1.3341 28.7395 1.37925 28.7682C1.48409 28.8349 1.48409 28.5549 1.37925 28.3878C1.31703 28.2887 1.29938 28.3106 1.29839 28.4885ZM0.400616 28.6062C0.404556 28.7046 0.424013 28.7247 0.4502 28.6573C0.473925 28.5963 0.47097 28.5233 0.443715 28.4953C0.41646 28.4672 0.397086 28.5171 0.400616 28.6062ZM0.571288 29.4022C0.571288 29.5184 0.589923 29.566 0.612663 29.5078C0.635485 29.4497 0.635485 29.3547 0.612663 29.2965C0.589923 29.2384 0.571288 29.2859 0.571288 29.4022ZM0.646897 29.7895C0.650837 29.888 0.670293 29.9081 0.696481 29.8407C0.720206 29.7797 0.71725 29.7067 0.689995 29.6786C0.66274 29.6506 0.643367 29.7005 0.646897 29.7895ZM0.818554 30.4165C0.819867 30.4862 0.85057 30.6384 0.886691 30.7546C0.93956 30.9245 0.952859 30.9328 0.954829 30.7969C0.956143 30.7039 0.925522 30.5517 0.886691 30.4587C0.843428 30.3552 0.817076 30.3388 0.818554 30.4165ZM0.968785 31.0573C0.968785 31.1851 1.47604 32.7118 1.50765 32.6792C1.53868 32.6473 1.06245 31.0765 1.00335 31.0156C0.9843 30.996 0.968785 31.0148 0.968785 31.0573ZM1.5505 32.8678C1.54795 32.9375 1.58178 33.0516 1.62553 33.1214C1.72249 33.2759 1.72249 33.1424 1.62553 32.91C1.57899 32.7986 1.55345 32.7842 1.5505 32.8678ZM1.83233 33.6876C1.9553 33.9908 2.036 34.1277 2.036 34.0333C2.036 33.9421 1.7866 33.3749 1.74646 33.3749C1.72388 33.3749 1.76255 33.5156 1.83233 33.6876ZM2.25174 34.6429C2.3143 34.8953 3.16889 36.6715 3.22775 36.6715C3.25033 36.6715 3.07235 36.2626 2.83239 35.7628C2.59235 35.263 2.35173 34.7591 2.29763 34.6429L2.19928 34.4315L2.25174 34.6429ZM3.2674 36.8023C3.2674 36.8332 3.51672 37.2763 3.82153 37.7869C4.12635 38.2976 4.42385 38.8071 4.4828 38.9191C4.54166 39.0312 4.62712 39.1228 4.6726 39.1228C4.71808 39.1228 4.64551 38.9611 4.51128 38.7636C4.12093 38.1888 3.43159 37.0188 3.43159 36.931C3.43159 36.8867 3.39465 36.827 3.3495 36.7983C3.30434 36.7696 3.2674 36.7713 3.2674 36.8023ZM5.58055 40.4541C5.6477 40.5354 5.96163 40.9254 6.27826 41.3205C6.94593 42.1538 8.271 43.542 9.09932 44.276C9.80615 44.9024 9.96024 44.9547 9.29479 44.3424C8.42903 43.5457 6.6811 41.7164 6.10447 41.0035C5.79424 40.62 5.52194 40.3062 5.49944 40.3062C5.47687 40.3062 5.5134 40.3728 5.58055 40.4541ZM10.5353 45.2044C10.4848 45.2886 11.1033 45.8005 11.2555 45.8005C11.36 45.8005 11.094 45.4946 10.8052 45.2826C10.6746 45.1867 10.5649 45.1549 10.5353 45.2044ZM11.5588 46.0118C11.6649 46.128 11.7886 46.2231 11.8338 46.2231C11.8789 46.2231 11.8291 46.128 11.723 46.0118C11.617 45.8956 11.4932 45.8005 11.4481 45.8005C11.4029 45.8005 11.4528 45.8956 11.5588 46.0118ZM11.9693 46.2078C11.9693 46.3099 12.125 46.429 12.182 46.3704C12.2026 46.3491 12.1632 46.2836 12.0944 46.2248C12.0164 46.1581 11.9693 46.1517 11.9693 46.2078ZM13.4486 47.1972C13.5058 47.268 13.5694 47.3086 13.5901 47.2874C13.647 47.2287 13.5313 47.0684 13.4321 47.0684C13.3776 47.0684 13.3839 47.1169 13.4486 47.1972ZM13.7073 47.2334C13.7534 47.382 14.2679 47.692 14.2679 47.5711C14.2679 47.5241 14.2033 47.4621 14.1243 47.4333C14.0452 47.4044 13.9106 47.32 13.825 47.2457C13.6989 47.1363 13.6765 47.134 13.7073 47.2334Z" fill="#E85012"/>
</svg>
